<svg width="268" height="107" viewBox="0 0 268 107" fill="none" xmlns="http://www.w3.org/2000/svg">
<path d="M96.6325 95.1685V33.3445H128.505C133.561 33.3445 137.721 34.3685 140.985 36.4165C144.313 38.4005 146.777 41.1205 148.377 44.5765C149.977 48.0325 150.777 51.8725 150.777 56.0965C150.777 60.4485 149.849 64.3205 147.993 67.7125C146.137 71.1045 143.513 73.7605 140.121 75.6805C136.729 77.6005 132.729 78.5605 128.121 78.5605H114.681V95.1685H96.6325ZM114.681 64.7365H123.993C126.809 64.7365 128.889 63.9365 130.233 62.3365C131.641 60.7365 132.345 58.6565 132.345 56.0965C132.345 53.3445 131.705 51.1685 130.425 49.5685C129.145 47.9685 127.161 47.1685 124.473 47.1685H114.681V64.7365ZM145.994 95.1685L169.706 33.3445H188.81L212.522 95.1685H193.706L188.522 82.0165H169.898L164.81 95.1685H145.994ZM172.298 69.0565H186.122L179.21 50.9125L172.298 69.0565ZM246.552 96.1285C235.352 96.1285 226.808 93.3765 220.92 87.8725C215.032 82.3685 212.088 74.5925 212.088 64.5445C212.088 54.1765 214.968 46.2405 220.728 40.7365C226.488 35.1685 235.064 32.3845 246.456 32.3845C250.296 32.3845 253.72 32.6725 256.728 33.2485C259.736 33.8245 262.616 34.6245 265.368 35.6485V51.3925C259.864 48.9605 253.976 47.7445 247.704 47.7445C241.88 47.7445 237.56 49.0885 234.744 51.7765C231.928 54.4005 230.52 58.6565 230.52 64.5445C230.52 70.3045 231.992 74.4645 234.936 77.0245C237.944 79.5205 242.264 80.7685 247.896 80.7685C250.968 80.7685 253.944 80.4805 256.824 79.9045C259.768 79.3285 262.68 78.4325 265.56 77.2165V93.0565C262.808 94.0165 259.896 94.7525 256.824 95.2645C253.816 95.8405 250.392 96.1285 246.552 96.1285Z" fill="url(#paint0_linear_156_5)"/>
<path d="M45.312 100.28C31.6587 100.28 21.2053 96.952 13.952 90.296C6.784 83.64 3.2 72.888 3.2 58.04C3.2 47.8 4.82133 39.5653 8.064 33.336C11.3067 27.0213 16.0427 22.456 22.272 19.64C28.5867 16.7387 36.2667 15.288 45.312 15.288C54.3573 15.288 61.9947 16.7387 68.224 19.64C74.5387 22.456 79.3173 27.0213 82.56 33.336C85.8027 39.5653 87.424 47.8 87.424 58.04C87.424 72.888 83.7973 83.64 76.544 90.296C69.2907 96.952 58.88 100.28 45.312 100.28ZM45.312 79.8C51.456 79.8 55.8933 78.0933 58.624 74.68C61.44 71.1813 62.848 65.6347 62.848 58.04C62.848 49.9333 61.44 44.216 58.624 40.888C55.8933 37.4747 51.456 35.768 45.312 35.768C39.168 35.768 34.688 37.4747 31.872 40.888C29.1413 44.216 27.776 49.9333 27.776 58.04C27.776 65.6347 29.1413 71.1813 31.872 74.68C34.688 78.0933 39.168 79.8 45.312 79.8Z" fill="url(#paint1_linear_156_5)"/>
<defs>
<linearGradient id="paint0_linear_156_5" x1="0" y1="61.5" x2="268" y2="61.5" gradientUnits="userSpaceOnUse">
<stop stop-color="#283C63"/>
<stop offset="1" stop-color="#1D4ED8"/>
</linearGradient>
<linearGradient id="paint1_linear_156_5" x1="0" y1="53.5" x2="268" y2="53.5" gradientUnits="userSpaceOnUse">
<stop stop-color="#283C63"/>
<stop offset="1" stop-color="#1D4ED8"/>
</linearGradient>
</defs>
</svg>
